<svg width="53" height="33" viewBox="0 0 53 33" fill="none" xmlns="http://www.w3.org/2000/svg">
<path d="M44.9395 9.95469C44.9395 10.614 44.6767 11.2463 44.2089 11.7125C43.7412 12.1787 43.1068 12.4406 42.4453 12.4406H2.49422C2.16667 12.4406 1.84234 12.3763 1.53972 12.2513C1.23711 12.1264 0.96215 11.9433 0.73054 11.7125C0.49893 11.4816 0.315207 11.2076 0.189861 10.906C0.0645149 10.6044 0 10.2811 0 9.95469C0 9.62824 0.0645149 9.30498 0.189861 9.00338C0.315207 8.70178 0.49893 8.42774 0.73054 8.19691C0.96215 7.96607 1.23711 7.78296 1.53972 7.65804C1.84234 7.53311 2.16667 7.46881 2.49422 7.46881H42.4445C42.7721 7.46871 43.0965 7.53294 43.3992 7.65783C43.7019 7.78271 43.977 7.9658 44.2087 8.19665C44.4404 8.42749 44.6241 8.70156 44.7495 9.00321C44.8749 9.30486 44.9395 9.62817 44.9395 9.95469Z" fill="#4752B7"/>
<path d="M24.9636 17.4229C24.9636 18.0822 24.7009 18.7145 24.2331 19.1807C23.7653 19.6469 23.1309 19.9088 22.4694 19.9088H17.4703C16.8088 19.9088 16.1744 19.6469 15.7066 19.1807C15.2389 18.7145 14.9761 18.0822 14.9761 17.4229C14.9761 16.7637 15.2389 16.1314 15.7066 15.6652C16.1744 15.199 16.8088 14.9371 17.4703 14.9371H22.4694C23.1309 14.9371 23.7653 15.199 24.2331 15.6652C24.7009 16.1314 24.9636 16.7637 24.9636 17.4229Z" fill="#4752B7"/>
<path d="M52.4325 9.95468C52.4359 10.7935 52.3293 11.6292 52.1154 12.4406C51.8849 13.3189 51.5289 14.1596 51.0586 14.9371C50.1833 16.4501 48.9232 17.7064 47.4054 18.5793C45.8875 19.4522 44.1656 19.9108 42.4132 19.9088H36.1987C35.7065 19.9088 35.219 20.0056 34.7644 20.1936C34.3097 20.3816 33.8968 20.6572 33.5492 21.0046C33.2016 21.352 32.9262 21.7643 32.7388 22.218C32.5513 22.6716 32.4556 23.1577 32.457 23.6483V29.4418C32.4731 29.5853 32.4731 29.7302 32.457 29.8737C32.4627 30.2033 32.4028 30.5307 32.2808 30.8372C32.1588 31.1436 31.9772 31.4229 31.7463 31.659C31.5155 31.8951 31.24 32.0832 30.9357 32.2126C30.6315 32.342 30.3046 32.4101 29.9739 32.4129C29.6431 32.4157 29.3151 32.3532 29.0087 32.229C28.7023 32.1048 28.4236 31.9214 28.1887 31.6892C27.9539 31.4571 27.7674 31.181 27.6402 30.8766C27.513 30.5723 27.4475 30.2459 27.4476 29.9163V22.4054C27.4442 21.5543 27.5909 20.7093 27.8808 19.9088C28.3331 18.6319 29.126 17.5021 30.1744 16.6408C31.2228 15.7796 32.487 15.2195 33.831 15.0209C34.1976 14.9605 34.5689 14.9323 34.9405 14.9367H42.4339C43.7183 14.8775 44.9305 14.3272 45.8185 13.4003C46.7064 12.4734 47.2019 11.2412 47.2019 9.95964C47.2019 8.67811 46.7064 7.44586 45.8185 6.51896C44.9305 5.59207 43.7183 5.04182 42.4339 4.98257H9.97732C9.34265 4.94117 8.74755 4.6607 8.31274 4.19806C7.87793 3.73542 7.63599 3.12526 7.63599 2.49136C7.63599 1.85746 7.87793 1.2473 8.31274 0.784661C8.74755 0.322022 9.34265 0.0415545 9.97732 0.00015868H42.445C44.1987 -0.00177784 45.9218 0.458002 47.44 1.33298C48.9582 2.20795 50.2175 3.46707 51.0906 4.98293C51.5616 5.75633 51.9175 6.59365 52.1475 7.46881C52.3494 8.28176 52.4453 9.11728 52.4329 9.95468H52.4325Z" fill="#4752B7"/>
</svg>
