<svg width="41" height="40" viewBox="0 0 41 40" fill="none" xmlns="http://www.w3.org/2000/svg">
<path fill-rule="evenodd" clip-rule="evenodd" d="M19.0196 9.6472C12.9335 10.2727 8.18628 15.4153 8.18628 21.6667C8.18628 28.3401 13.5962 33.75 20.2696 33.75C26.521 33.75 31.6636 29.0028 32.2891 22.9167H20.2696C19.5793 22.9167 19.0196 22.357 19.0196 21.6667V9.6472ZM5.68628 21.6667C5.68628 13.6125 12.2155 7.08333 20.2696 7.08333C20.96 7.08333 21.5196 7.64298 21.5196 8.33333V20.4167H33.6029C34.2933 20.4167 34.8529 20.9763 34.8529 21.6667C34.8529 29.7208 28.3238 36.25 20.2696 36.25C12.2155 36.25 5.68628 29.7208 5.68628 21.6667Z" fill="white"/>
<path fill-rule="evenodd" clip-rule="evenodd" d="M26.1029 7.78941V15.8333H34.1469C33.2085 11.8593 30.077 8.72778 26.1029 7.78941ZM25.2663 5.10274C31.3002 5.85362 36.0827 10.6361 36.8335 16.67C36.9472 17.5834 36.1901 18.3333 35.2696 18.3333H24.4363C23.976 18.3333 23.6029 17.9602 23.6029 17.5V6.66666C23.6029 5.74619 24.3529 4.98907 25.2663 5.10274Z" fill="white"/>
</svg>
