<svg width="43" height="40" viewBox="0 0 43 40" fill="none" xmlns="http://www.w3.org/2000/svg">
<path fill-rule="evenodd" clip-rule="evenodd" d="M23.9997 9.22375C22.4762 7.83148 20.0708 7.83148 18.5474 9.22375L10.4511 16.6226C10.2527 16.8039 10.1193 17.0401 10.0697 17.2976C9.09997 22.334 9.02839 27.4901 9.85797 32.5492L10.0549 33.75H15.2637V23.3978C15.2637 22.7074 15.8513 22.1478 16.5762 22.1478H25.9709C26.6958 22.1478 27.2834 22.7074 27.2834 23.3978V33.75H32.4922L32.6891 32.5492C33.5187 27.4901 33.4471 22.334 32.4774 17.2976C32.4278 17.0401 32.2944 16.8039 32.096 16.6226L23.9997 9.22375ZM16.7299 7.41988C19.2691 5.09944 23.278 5.09944 25.8172 7.41988L33.9135 14.8188C34.5095 15.3634 34.9104 16.0729 35.0593 16.8467C36.0823 22.1594 36.1578 27.5983 35.2827 32.9349L34.9664 34.864C34.8355 35.6618 34.114 36.25 33.2662 36.25H25.9709C25.246 36.25 24.6584 35.6903 24.6584 35V24.6478H17.8887V35C17.8887 35.6903 17.3011 36.25 16.5762 36.25H9.28091C8.43306 36.25 7.71156 35.6618 7.58074 34.864L7.2644 32.9349C6.38932 27.5983 6.46483 22.1594 7.48775 16.8467C7.63674 16.0729 8.03763 15.3634 8.63363 14.8188L16.7299 7.41988Z" fill="#F6F8FF" stroke="#F6F8FF"/>
</svg>
