<svg width="41" height="40" viewBox="0 0 41 40" fill="none" xmlns="http://www.w3.org/2000/svg">
<path d="M20.2657 17.9167C20.9561 17.9167 21.5157 18.4763 21.5157 19.1667V27.5C21.5157 28.1904 20.9561 28.75 20.2657 28.75C19.5754 28.75 19.0157 28.1904 19.0157 27.5V19.1667C19.0157 18.4763 19.5754 17.9167 20.2657 17.9167Z" fill="white"/>
<path d="M20.2657 15C21.1862 15 21.9324 14.2538 21.9324 13.3334C21.9324 12.4129 21.1862 11.6667 20.2657 11.6667C19.3452 11.6667 18.599 12.4129 18.599 13.3334C18.599 14.2538 19.3452 15 20.2657 15Z" fill="white"/>
<path fill-rule="evenodd" clip-rule="evenodd" d="M5.68237 20C5.68237 11.9459 12.2116 5.41669 20.2657 5.41669C28.3199 5.41669 34.849 11.9459 34.849 20C34.849 28.0542 28.3199 34.5834 20.2657 34.5834C12.2116 34.5834 5.68237 28.0542 5.68237 20ZM20.2657 7.91669C13.5923 7.91669 8.18237 13.3266 8.18237 20C8.18237 26.6735 13.5923 32.0834 20.2657 32.0834C26.9391 32.0834 32.349 26.6735 32.349 20C32.349 13.3266 26.9391 7.91669 20.2657 7.91669Z" fill="white"/>
</svg>
