<svg width="40" height="40" viewBox="0 0 40 40" fill="none" xmlns="http://www.w3.org/2000/svg">
<path d="M10.7147 4.02165C11.1686 3.50152 11.115 2.71189 10.5948 2.25795C10.0747 1.80401 9.28508 1.85767 8.83114 2.3778L6.67813 4.84475C5.45686 6.24409 4.76647 8.02828 4.72775 9.88521L4.63328 14.4146C4.61889 15.1048 5.16674 15.676 5.85694 15.6904C6.54715 15.7048 7.11834 15.157 7.13274 14.4668L7.2272 9.93734C7.2537 8.66681 7.72607 7.44605 8.56167 6.4886L10.7147 4.02165Z" fill="#35498B"/>
<path fill-rule="evenodd" clip-rule="evenodd" d="M10.395 12.8346C10.6265 9.13339 13.6959 6.25004 17.4043 6.25004H18.3333V5.00004C18.3333 4.07957 19.0795 3.33338 20 3.33338C20.9205 3.33338 21.6667 4.07957 21.6667 5.00004V6.25004H22.5957C26.3041 6.25004 29.3735 9.1334 29.605 12.8346L29.9733 18.7237C30.1137 20.969 30.8675 23.1328 32.1526 24.9793C33.3138 26.6478 32.2801 28.9521 30.2619 29.1942L24.5833 29.8757V31.6667C24.5833 34.198 22.5313 36.25 20 36.25C17.4687 36.25 15.4167 34.198 15.4167 31.6667V29.8757L9.73812 29.1942C7.7199 28.9521 6.6862 26.6478 7.84734 24.9793C9.13244 23.1328 9.88625 20.969 10.0267 18.7237L10.395 12.8346ZM17.4043 8.75004C15.016 8.75004 13.0392 10.607 12.8901 12.9907L12.5218 18.8798C12.3528 21.5817 11.4457 24.1854 9.89932 26.4074C9.81539 26.528 9.8901 26.6946 10.036 26.7121L16.2654 27.4596C18.7462 27.7573 21.2538 27.7573 23.7346 27.4596L29.964 26.7121C30.1099 26.6946 30.1846 26.528 30.1007 26.4074C28.5543 24.1854 27.6472 21.5817 27.4782 18.8798L27.1098 12.9907C26.9607 10.607 24.984 8.75004 22.5957 8.75004H17.4043ZM20 33.75C18.8494 33.75 17.9167 32.8173 17.9167 31.6667V30.4167H22.0833V31.6667C22.0833 32.8173 21.1506 33.75 20 33.75Z" fill="#35498B"/>
<path d="M29.4052 2.25795C28.885 2.71189 28.8314 3.50152 29.2853 4.02165L31.4383 6.4886C32.2739 7.44605 32.7463 8.66681 32.7728 9.93734L32.8673 14.4668C32.8817 15.157 33.4528 15.7048 34.1431 15.6904C34.8333 15.676 35.3811 15.1048 35.3667 14.4146L35.2723 9.88521C35.2335 8.02828 34.5431 6.24409 33.3219 4.84475L31.1689 2.3778C30.7149 1.85767 29.9253 1.80401 29.4052 2.25795Z" fill="#35498B"/>
</svg>
